<svg xmlns="http://www.w3.org/2000/svg" viewBox="0 0 980 240" role="img" aria-label="OrbitalBiosystems wordmark">
  <title>OrbitalBiosystems</title>
  <style>
    :root { --ob-accent: currentColor; }
    .stroke { stroke: currentColor; stroke-linecap: round; stroke-linejoin: round; fill: none; }
    .node { fill: currentColor; }
    .accent { fill: var(--ob-accent); }
    .type {
      fill: currentColor;
      font-family: ui-sans-serif, system-ui, -apple-system, "Segoe UI", Roboto, Inter, Helvetica, Arial, sans-serif;
      font-weight: 500;
      letter-spacing: 0.2px;
    }
    .sub { font-weight: 400; opacity: 0.92; letter-spacing: 0.6px; }
  </style>
  <g transform="translate(20,20) scale(0.39)">
    <circle class="stroke" cx="256" cy="256" r="208" stroke-width="28"/>
    <g class="stroke" stroke-width="18">
      <path d="M256 136 L359.9 196 L359.9 316 L256 376 L152.1 316 L152.1 196 Z"/>
      <path d="M256 136 L256 256"/>
      <path d="M359.9 196 L256 256"/>
      <path d="M359.9 316 L256 256"/>
      <path d="M256 376 L256 256"/>
      <path d="M152.1 316 L256 256"/>
      <path d="M152.1 196 L256 256"/>
    </g>
    <circle class="node" cx="256" cy="136" r="22"/>
    <circle class="node" cx="359.9" cy="196" r="22"/>
    <circle class="node" cx="359.9" cy="316" r="22"/>
    <circle class="node" cx="256" cy="376" r="22"/>
    <circle class="node" cx="152.1" cy="316" r="22"/>
    <circle class="node" cx="152.1" cy="196" r="22"/>
    <circle class="accent" cx="256" cy="256" r="24"/>
  </g>
  <text class="type" x="230" y="128" font-size="64">OrbitalBiosystems</text>
  <text class="type sub" x="230" y="178" font-size="24">open research infrastructure</text>
</svg>
